<svg width="414" height="744" viewBox="0 0 414 744" fill="none" xmlns="http://www.w3.org/2000/svg">
<path d="M294.824 411.676C253.186 435.741 65.8081 434.388 205.466 568.292C345.123 702.195 221.45 721.906 234.74 742.98C251.642 769.781 315.041 731.384 315.041 731.384C315.041 731.384 361.287 702.547 376.15 673.111C407.591 610.84 379.513 566.707 388.911 499.299C404.502 387.483 535.954 302.104 459.565 218.973C429.143 185.866 396.767 187.547 357.882 164.973C285.782 123.117 264.017 35.3701 181.22 45.1207C59.31 59.4774 46.4007 268.763 133.03 355.732C180.211 403.098 336.461 387.611 294.824 411.676Z" fill="#83BEC1" stroke="#83BEC1"/>
</svg>
