<svg width="25" height="26" viewBox="0 0 25 26" fill="none" xmlns="http://www.w3.org/2000/svg">
<path d="M2.69511 26C1.99329 26 1.55724 25.6561 1.22086 25.3205C-0.0498934 24.0407 0.855418 22.3107 4.95008 18.2004C8.01693 15.1219 10.1037 13.5148 11.4845 12.4497C12.1344 11.9495 12.6037 11.5868 12.9235 11.2637L24.1443 1.77138e-09L24.4309 0.787879C26.3786 6.15921 22.7947 10.3341 21.6506 11.4847C20.0559 13.0834 18.0875 13.7045 16.3495 14.2527C15.0103 14.6758 13.8558 15.0406 13.1436 15.7534C12.7657 16.1328 12.3192 16.8289 11.8043 17.6356C10.9509 18.9633 9.89192 20.6182 8.35953 22.1565C5.71212 24.814 3.96379 26 2.69511 26Z" fill="#205B7D"/>
</svg>
