<svg width="70" height="58" viewBox="0 0 70 58" fill="none" xmlns="http://www.w3.org/2000/svg">
<path opacity="0.7" d="M31.5 30.7059H38.5V37.5294H70C70 37.5294 69.4785 22.3164 69.3 17.5569C69.125 13.0329 67.4625 10.2353 62.3 10.2353H51.072C49.3325 7.03506 47.46 3.59941 46.8825 2.53835C45.724 0.412823 45.3285 0 42.756 0H27.2405C24.668 0 24.276 0.412823 23.114 2.53835C22.5365 3.59941 20.664 7.03506 18.928 10.2353H7.6965C2.5305 10.2353 0.889 13.0329 0.6965 17.5569C0.504 22.0809 0 37.5294 0 37.5294H31.5V30.7059ZM26.7715 6.53694C27.5765 5.06306 27.8495 4.77647 29.631 4.77647H40.3655C42.147 4.77647 42.4235 5.06306 43.2215 6.53694C43.5225 7.08282 44.3345 8.584 45.234 10.2353H24.759C25.6585 8.584 26.4705 7.08282 26.7715 6.53694ZM38.5 47.7647H31.5V40.9412H1.75C1.75 40.9412 2.184 47.0721 2.4465 52.2751C2.555 54.4347 3.2095 58 8.7465 58H61.25C66.787 58 67.4275 54.4279 67.55 52.2751C67.8545 46.9254 68.25 40.9412 68.25 40.9412H38.5V47.7647Z" fill="#474747"/>
</svg>
